<svg width="6" height="15" viewBox="0 0 6 15" fill="none" xmlns="http://www.w3.org/2000/svg">
<g clip-path="url(#clip0_4_815)">
<path d="M0.696289 11.1436C0.555013 11.1436 0.434245 11.0946 0.333984 10.9966C0.233724 10.8986 0.183594 10.779 0.183594 10.6377C0.183594 10.4964 0.236003 10.3734 0.34082 10.2686L3.10254 7.51367L0.34082 4.75879C0.236003 4.65397 0.183594 4.53092 0.183594 4.38965C0.183594 4.24837 0.233724 4.12874 0.333984 4.03076C0.434245 3.93278 0.555013 3.88379 0.696289 3.88379C0.828451 3.88379 0.94694 3.93164 1.05176 4.02734L4.16895 7.13086C4.27832 7.23112 4.33301 7.35872 4.33301 7.51367C4.33301 7.65951 4.27832 7.78711 4.16895 7.89648L1.05176 11C0.956055 11.0957 0.837565 11.1436 0.696289 11.1436Z" fill="#0066CC"/>
</g>
<defs>
<clipPath id="clip0_4_815">
<rect width="5.82" height="14" fill="white" transform="matrix(1 0 0 -1 0.179932 14.5)"/>
</clipPath>
</defs>
</svg>
